:SAMPLES-PER-SECOND 30
:FULLY-SPECIFIED
:DEGREES
675
root  -29.3282 38.5229 17.3094 16.0107 72.7357 20.7829
RightUpLeg  14.4936 -5.43756 -19.0084
RightLeg  37.6923 -6.60174 -5.63177
RightFoot  5.19695 -1.71826 11.4012
RightToes  4.01633e-009 0 -3.6325e-017
Spine  10.2233 1.62261 5.8074
Spine1  8.09786 4.47129 -11.7648
HEad  62.8692 8.12823 -175.409
LeftShoulder1  0.597204 1.83498 -29.6852
LeftArm  -6.73276 12.5243 -42.6716
LeftForeArm  33.5248 -5.20515 -7.22685
LeftHand  0.0709414 2.80521 -4.0644
RightShoulder  -0.231651 -4.21878 25.0195
RightArm  9.18054 -0.614642 51.5366
RightForeArm  7.48482 0.498736 6.1923
RightHand  -0.245273 -0.884023 -6.25578
LeftUpLeg  -16.6788 11.0355 -9.53967
LeftLeg  19.7264 4.04015 1.16358
LeftFoot  0.588447 -0.842145 7.99343
LeftToes  -1.95724e-009 9.62483e-011 3.51777e-011
676
root  -28.2575 38.579 17.3853 17.5985 73.4356 23.0559
RightUpLeg  9.68857 -0.752051 -17.203
RightLeg  46.599 -2.27203 -2.78452
RightFoot  8.06461 -1.55461 9.35691
RightToes  4.01633e-009 0 -3.6325e-017
Spine  10.7512 1.84196 4.21574
Spine1  7.92948 4.25149 -11.1369
HEad  64.1138 8.20268 -175.806
LeftShoulder1  0.608484 1.78535 -29.3
LeftArm  -6.72529 10.32 -42.9748
LeftForeArm  28.3201 -8.58921 -7.07284
LeftHand  0.00989518 2.46786 -1.01962
RightShoulder  -0.20654 -4.13079 25.2916
RightArm  10.7966 -0.3169 51.7641
RightForeArm  9.68048 -0.677135 6.88363
RightHand  -0.213576 -1.1886 -5.75748
LeftUpLeg  -14.5779 10.75 -10.0039
LeftLeg  20.6525 3.72516 1.15809
LeftFoot  -1.64112 -0.647099 7.73047
LeftToes  -1.95724e-009 9.62483e-011 3.51777e-011
677
root  -27.1931 38.6458 17.5038 19.7028 75.6612 25.5179
RightUpLeg  5.68616 1.39622 -15.3375
RightLeg  53.1641 3.05455 3.9493
RightFoot  5.32707 -1.61654 11.2598
RightToes  4.01633e-009 0 -3.6325e-017
Spine  10.328 1.36583 2.20854
Spine1  8.28724 2.92099 -9.18522
HEad  65.2373 7.08813 -175.674
LeftShoulder1  0.618137 1.76865 -29.5199
LeftArm  -3.72787 7.87812 -42.6911
LeftForeArm  21.2444 -12.5904 -6.93147
LeftHand  -0.0408396 1.53724 1.05724
RightShoulder  -0.140265 -3.92566 24.9968
RightArm  11.2923 -1.21228 52.2125
RightForeArm  13.8163 1.78723 6.9551
RightHand  -0.161174 -1.34433 -4.61822
LeftUpLeg  -12.6964 8.24414 -10.0689
LeftLeg  21.5018 4.03355 1.53801
LeftFoot  -3.46667 -0.508286 7.68365
LeftToes  -1.95724e-009 9.62483e-011 3.51777e-011
678
root  -26.1833 38.7318 17.6529 20.6488 77.7632 26.9039
RightUpLeg  1.35946 3.00838 -13.1101
RightLeg  58.4626 4.25445 6.92593
RightFoot  3.66076 -1.61301 12.3808
RightToes  4.01633e-009 0 -3.6325e-017
Spine  10.5295 0.920715 0.588922
Spine1  8.10596 1.67116 -7.54429
HEad  67.2772 6.19586 -174.989
LeftShoulder1  0.633657 1.72646 -29.5733
LeftArm  -0.241504 5.1325 -42.6584
LeftForeArm  15.8714 -16.1716 -6.06048
LeftHand  -0.0649577 0.785776 1.57939
RightShoulder  -0.232987 -4.22081 25.0471
RightArm  11.6567 -2.43994 52.1115
RightForeArm  17.1298 6.33939 6.7504
RightHand  -0.119455 0.0609764 -2.53302
LeftUpLeg  -10.5768 6.482 -9.56221
LeftLeg  22.003 3.96067 1.48252
LeftFoot  -5.11919 -0.398545 7.88707
LeftToes  -1.95724e-009 9.62483e-011 3.51777e-011
679
root  -25.1131 38.9166 17.7977 21.978 79.802 28.6398
RightUpLeg  -2.78526 3.58164 -11.4125
RightLeg  61.0496 2.89572 5.15475
RightFoot  2.65585 -1.38193 11.3641
RightToes  4.01633e-009 0 -3.6325e-017
Spine  10.6645 0.394202 -0.703558
Spine1  7.49616 0.600323 -5.95689
HEad  69.8438 5.60101 -172.975
LeftShoulder1  0.719968 1.4429 -28.8045
LeftArm  3.38685 3.11561 -43.0187
LeftForeArm  12.5946 -20.4803 -4.80304
LeftHand  -0.104356 1.24862 2.77008
RightShoulder  -0.182455 -4.06171 24.9328
RightArm  13.7484 -4.29592 51.9175
RightForeArm  12.9984 11.4537 6.59274
RightHand  -0.136841 -0.104599 -2.88132
LeftUpLeg  -7.70718 5.29695 -8.97483
LeftLeg  21.1078 3.40151 1.07428
LeftFoot  -6.30625 -0.315775 8.03037
LeftToes  -1.95724e-009 9.62483e-011 3.51777e-011
680
root  -24.0819 39.0746 17.9027 23.458 81.4926 30.3061
RightUpLeg  -7.09389 3.72675 -10.2844
RightLeg  61.3402 0.963397 1.43883
RightFoot  1.46141 -1.08742 9.75735
RightToes  4.01633e-009 0 -3.6325e-017
Spine  10.8738 -0.159636 -1.54659
Spine1  6.70299 -0.293845 -4.78663
HEad  72.3646 4.42702 -171.013
LeftShoulder1  0.690766 1.48863 -28.1705
LeftArm  3.74007 0.928599 -43.3653
LeftForeArm  13.8773 -24.0769 -4.34414
LeftHand  -0.122359 0.579747 2.90883
RightShoulder  -0.195165 -4.10014 25.0578
RightArm  18.1986 -4.78998 51.785
RightForeArm  4.41791 15.5592 6.17848
RightHand  -0.328872 1.50241 -5.73379
LeftUpLeg  -5.11808 4.68069 -8.4392
LeftLeg  20.0603 2.48939 0.647057
LeftFoot  -7.33123 -0.242155 8.17034
LeftToes  -1.95724e-009 9.62483e-011 3.51777e-011
